0
SECTION
2
HEADER
9
$INSUNITS
70
4
9
$ACADVER
1
AC1014
9
$HANDSEED
5
FFFF
0
ENDSEC
0
SECTION
2
TABLES
0
TABLE
2
VPORT
5
8
100
AcDbSymbolTable
0
ENDTAB
0
TABLE
2
LTYPE
5
5
100
AcDbSymbolTable
0
LTYPE
5
14
100
AcDbSymbolTableRecord
100
AcDbLinetypeTableRecord
2
BYBLOCK
70
0
0
LTYPE
5
15
100
AcDbSymbolTableRecord
100
AcDbLinetypeTableRecord
2
BYLAYER
70
0
0
ENDTAB
0
TABLE
2
LAYER
5
2
100
AcDbSymbolTable
70
2
0
LAYER
5
50
100
AcDbSymbolTableRecord
100
AcDbLayerTableRecord
2
0
70
0
6
CONTINUOUS
0
ENDTAB
0
TABLE
2
STYLE
5
3
100
AcDbSymbolTable
70
1
0
STYLE
5
11
100
AcDbSymbolTableRecord
100
AcDbTextStyleTableRecord
2
STANDARD
70
0
0
ENDTAB
0
TABLE
2
VIEW
5
6
100
AcDbSymbolTable
70
0
0
ENDTAB
0
TABLE
2
UCS
5
7
100
AcDbSymbolTable
70
0
0
ENDTAB
0
TABLE
2
APPID
5
9
100
AcDbSymbolTable
70
2
0
APPID
5
12
100
AcDbSymbolTableRecord
100
AcDbRegAppTableRecord
2
ACAD
70
0
0
ENDTAB
0
TABLE
2
DIMSTYLE
5
A
100
AcDbSymbolTable
70
1
0
ENDTAB
0
TABLE
2
BLOCK_RECORD
5
1
100
AcDbSymbolTable
70
1
0
BLOCK_RECORD
5
1F
100
AcDbSymbolTableRecord
100
AcDbBlockTableRecord
2
*MODEL_SPACE
0
BLOCK_RECORD
5
1B
100
AcDbSymbolTableRecord
100
AcDbBlockTableRecord
2
*PAPER_SPACE
0
ENDTAB
0
ENDSEC
0
SECTION
2
BLOCKS
0
BLOCK
5
20
100
AcDbEntity
100
AcDbBlockBegin
2
*MODEL_SPACE
0
ENDBLK
5
21
100
AcDbEntity
100
AcDbBlockEnd
0
BLOCK
5
1C
100
AcDbEntity
100
AcDbBlockBegin
2
*PAPER_SPACE
0
ENDBLK
5
1D
100
AcDbEntity
100
AcDbBlockEnd
0
ENDSEC
0
SECTION
2
ENTITIES
0
LWPOLYLINE
5
100
100
AcDbEntity
8
OUTER_PROFILES
100
AcDbPolyline
90
78
70
1
43
0.0
10
-31.148458824786388
20
-72.485016957856658
42
0.31529878686410956
10
-31.742268851076908
20
-70.268887798497389
10
-37.147069416659093
20
-65.733721789299096
10
-34.239166638090239
20
-62.268218287842323
10
-20.590850751486887
20
-73.720515111161376
10
-23.804788799372698
20
-77.550737327215217
42
0.41421356237310086
10
-23.558275132105461
20
-80.368401432791089
10
-0.631401487998421
20
-99.606332646031021
42
0.41421356237310114
10
2.1862626175774524
20
-99.359818978763826
10
13.75643958996643
20
-85.571019000970068
42
0.41421356237309348
10
13.509925922699242
20
-82.753354895394224
10
-19.912350943519851
20
-54.708734711977101
42
0.1989123671146778
10
-21.372237646422569
20
-54.248434202062285
10
-24.727189820234067
20
-54.541954480978319
42
-0.19343254739636995
10
-26.154454829596592
20
-54.108445279734319
10
-77.32234783710112
20
-12.982134134185623
42
0.40804490210060634
10
-81.499911455154603
20
-13.392091598092621
10
-88.947607045789255
20
-22.267909577353244
10
-89.590394655794739
20
-23.033954020204614
10
-91.122483541497417
20
-21.748378800193585
10
-89.041953477940581
20
-19.268899624546204
42
0.087488663630817531
10
-87.305471698594843
20
-16.261224957747768
10
-76.339708508184273
20
13.866961794993141
42
0.087488663525923563
10
-75.736634716043397
20
17.287163228249824
10
-75.736634716043412
20
20.523893421165184
10
-73.736634716043412
20
20.523893421165166
10
-73.736634716043582
20
7.9373379947154463
42
0.40804489255430176
10
-70.799950996710038
20
4.9380062277042294
10
-18.882823342353383
20
3.8420289629963977
42
0.19891236737965823
10
-17.456561515200345
20
4.3978373390701195
10
-17.408672638014028
20
4.4437461352667054
42
-0.19343253917089057
10
-16.024621664638634
20
4.9999999999996376
10
-6.6568542494920226
20
4.9999999999996696
42
-0.19891236737965939
10
-5.2426406871189162
20
4.4142135623727654
10
-1.4142135623730947
20
0.58578643762691796
42
0.19891236737965801
10
0
20
1.3322676295501878e-14
10
43.629683918609942
20
-5.440092820663267e-14
42
0.41421356237310197
10
45.629683918609985
20
1.9999999999999685
10
45.629683918609985
20
20.000000000000057
42
0.4142135623731022
10
43.629683918609928
20
22.000000000000068
10
13.700775945578272
20
22.000000000000082
42
0.41421356237309698
10
11.700775945578265
20
20.000000000000064
10
11.70077594557819
20
15.000000000000036
10
-6.1158350977777332
20
15.00000000000005
10
-6.1158350977775378
20
19.523893421165862
10
1.3309403991654432
20
19.523893421165969
42
0.17439675249703473
10
4.5160980322500341
20
20.669704680016608
42
-0.18744384008324788
10
12.766622084695978
20
23.404333063326707
42
0.32924442228768597
10
17.717645910726695
20
26.687849580893662
10
19.864101607813112
20
32.585188140498488
10
34.667079463053611
20
27.197344822689423
42
0.41421356237309498
10
37.23050499127676
20
28.392689777609913
10
39.624645994556346
20
34.970538123111332
42
0.4142135623730992
10
38.42930103963581
20
37.533963651334489
10
13.289704355750301
20
46.684028545725795
42
0.41421356237309925
10
6.8811405351924115
20
43.69566615842448
10
2.9397368556147896
20
32.866748547829083
10
-12.095345076960315
20
38.339070841039792
42
0.087488663525917748
10
-14.264629601903071
20
38.721574231620536
10
-16.264629601903096
20
38.721574231620451
10
-16.264629601903337
20
47.245467652788719
42
0.41421356237309531
10
-21.26462960190338
20
52.24546765278869
10
-124.32418457425388
20
52.245467652787767
42
0.41421356237309243
10
-129.32418457425376
20
47.245467652787667
10
-129.32418457425345
20
39.721574231619087
10
-130.08515742589165
20
39.721574231619165
10
-145.09589870694083
20
-1.5200984873404133
10
-144.51295968269426
20
-2.0092424079978399
10
-147.42086232153329
20
-5.4747458244087586
10
-149.3492251515496
20
-7.7728791529628509
42
0.4142135623730972
10
-148.73294098732043
20
-14.817039417247075
10
-71.860799230470008
20
-79.320425267771668
42
0.41421356237309581
10
-64.816638966185792
20
-78.704141103542483
10
-59.531410067260524
20
-72.405450580891738
10
-45.177738821473994
20
-84.449610839455644
42
0.087488663630817753
10
-43.673901488074776
20
-85.317851729128506
10
-38.617436023966874
20
-87.158254648658755
42
0.41421356439825435
10
-36.054010491014054
20
-85.96290968074355
0
LWPOLYLINE
5
101
100
AcDbEntity
8
INTERIOR_PROFILES
100
AcDbPolyline
90
4
70
1
43
0.0
10
-60.73663471604366
20
19.523893421165436
10
-66.736634716043682
20
19.523893421165369
10
-66.736634716043682
20
15.000000000000833
10
-60.736634716043667
20
15.000000000000831
0
LWPOLYLINE
5
102
100
AcDbEntity
8
INTERIOR_PROFILES
100
AcDbPolyline
90
4
70
1
43
0.0
10
-19.041377668070663
20
-63.272011963856166
10
-14.805762384293857
20
-66.826115192610757
10
-12.87739955321916
20
-64.527981864944536
10
-17.113014836996001
20
-60.973878636189973
0
LWPOLYLINE
5
103
100
AcDbEntity
8
INTERIOR_PROFILES
100
AcDbPolyline
90
4
70
1
43
0.0
10
-10.73663471604366
20
19.52389342116593
10
-16.736634716043657
20
19.523893421165855
10
-16.736634716043675
20
15.000000000000821
10
-10.736634716043643
20
15.000000000000821
0
LWPOLYLINE
5
104
100
AcDbEntity
8
INTERIOR_PROFILES
100
AcDbPolyline
90
4
70
1
43
0.0
10
-76.081126671713662
20
-27.158645139863296
10
-80.677393327045934
20
-23.301919477714055
10
-83.585295969859473
20
-26.76742289303041
10
-78.989029316683727
20
-30.624148557749709
0
CIRCLE
5
105
100
AcDbEntity
8
INTERIOR_PROFILES
100
AcDbCircle
10
37.505887356791021
20
-54.305484926031994
30
0
40
1.7500000000000024
210
0
220
0
230
-1
0
CIRCLE
5
106
100
AcDbEntity
8
INTERIOR_PROFILES
100
AcDbCircle
10
13.736634716043312
20
10.999999999999211
30
0
40
1.7499999999999978
210
0
220
0
230
-1
0
CIRCLE
5
107
100
AcDbEntity
8
INTERIOR_PROFILES
100
AcDbCircle
10
75.808109530711334
20
-22.166104463122473
30
0
40
1.7499999999999973
210
0
220
0
230
-1
0
CIRCLE
5
108
100
AcDbEntity
8
INTERIOR_PROFILES
100
AcDbCircle
10
11.214803092878558
20
-67.881176704772258
30
0
40
1.050000000000006
210
0
220
0
230
-1
0
CIRCLE
5
109
100
AcDbEntity
8
INTERIOR_PROFILES
100
AcDbCircle
10
-15.12979073676382
20
17.499999999999375
30
0
40
1.0500000000000087
210
0
220
0
230
-1
0
CIRCLE
5
110
100
AcDbEntity
8
INTERIOR_PROFILES
100
AcDbCircle
10
-15.129790736763091
20
4.4999999999993392
30
0
40
1.0500000000000087
210
0
220
0
230
-1
0
CIRCLE
5
111
100
AcDbEntity
8
INTERIOR_PROFILES
100
AcDbCircle
10
-34.668805009773266
20
33.049694523664201
30
0
40
1.5500000000000014
210
0
220
0
230
-1
0
CIRCLE
5
112
100
AcDbEntity
8
INTERIOR_PROFILES
100
AcDbCircle
10
63.736634716043312
20
10.999999999998931
30
0
40
1.7499999999999929
210
0
220
0
230
-1
0
CIRCLE
5
113
100
AcDbEntity
8
INTERIOR_PROFILES
100
AcDbCircle
10
-42.129790736764022
20
18.499999999997797
30
0
40
1.5500000000000114
210
0
220
0
230
-1
0
CIRCLE
5
114
100
AcDbEntity
8
INTERIOR_PROFILES
100
AcDbCircle
10
-25.271878801914145
20
36.469895956920773
30
0
40
1.5500000000000025
210
0
220
0
230
-1
0
CIRCLE
5
115
100
AcDbEntity
8
INTERIOR_PROFILES
100
AcDbCircle
10
2.0222697743495388
20
-75.594628019698391
30
0
40
1.0500000000000056
210
0
220
0
230
-1
0
CIRCLE
5
116
100
AcDbEntity
8
INTERIOR_PROFILES
100
AcDbCircle
10
-0.46937033973131648
20
-95.961064368306538
30
0
40
1.5500000000000047
210
0
220
0
230
-1
0
CIRCLE
5
117
100
AcDbEntity
8
INTERIOR_PROFILES
100
AcDbCircle
10
-10.111184483388911
20
-84.470397720145272
30
0
40
1.5500000000000036
210
0
220
0
230
-1
0
CIRCLE
5
118
100
AcDbEntity
8
INTERIOR_PROFILES
100
AcDbCircle
10
-27.12979073676312
20
4.4999999999986242
30
0
40
1.0500000000000043
210
0
220
0
230
-1
0
CIRCLE
5
119
100
AcDbEntity
8
INTERIOR_PROFILES
100
AcDbCircle
10
-27.129790736763866
20
17.499999999998654
30
0
40
1.0500000000000043
210
0
220
0
230
-1
0
CIRCLE
5
120
100
AcDbEntity
8
INTERIOR_PROFILES
100
AcDbCircle
10
10.378508698852773
20
-85.553205781438152
30
0
40
1.0500000000000096
210
0
220
0
230
-1
0
CIRCLE
5
121
100
AcDbEntity
8
INTERIOR_PROFILES
100
AcDbCircle
10
19.57104201738181
20
-77.839754466512034
30
0
40
1.0500000000000045
210
0
220
0
230
-1
0
CIRCLE
5
122
100
AcDbEntity
8
INTERIOR_PROFILES
100
AcDbCircle
10
-42.129790736763141
20
3.4999999999977307
30
0
40
1.5500000000000114
210
0
220
0
230
-1
0
LWPOLYLINE
5
123
100
AcDbEntity
8
INTERIOR_PROFILES
100
AcDbPolyline
90
8
70
1
43
0.0
10
-109.69139215885109
20
0.88058780229780753
10
-111.15518875455072
20
-3.1411798188137166
42
0.6011023563369009
10
-110.56403586550134
20
-3.7972507808969294
10
-98.741017507317508
20
-0.84049914072370147
42
0.24913872215209079
10
-98.392477663648336
20
-0.5264480144314776
10
-96.928501253803432
20
3.4957827757888467
42
0.6011145250883061
10
-97.519669868162509
20
4.1518508583346678
10
-109.34286804049168
20
1.194636049052602
42
0.24913053828175483
0
LWPOLYLINE
5
124
100
AcDbEntity
8
INTERIOR_PROFILES
100
AcDbPolyline
90
8
70
1
43
0.0
10
-119.24596226406395
20
7.1098520252447113
42
-0.24911742886463692
10
-118.89746160443457
20
7.4238937374573419
10
-94.069512847585358
20
13.635114269320885
42
-0.6011304892429622
10
-93.478320886428875
20
12.979052413782604
10
-94.967233923008223
20
8.8882974662488508
42
-0.24911736691749048
10
-95.315734469470414
20
8.5742557823473255
10
-120.14368569102621
20
2.3630284787583742
42
-0.6011305686474181
10
-120.73487776534989
20
3.0190903059855536
0
LWPOLYLINE
5
125
100
AcDbEntity
8
INTERIOR_PROFILES
100
AcDbPolyline
90
8
70
1
43
0.0
10
-115.78802381068952
20
16.610305661991859
10
-117.25182040638911
20
12.588538040880287
42
0.60110235633688625
10
-116.6606675173398
20
11.93246707879711
10
-104.83764915915592
20
14.889218718970378
42
0.24913872215204846
10
-104.48910931548674
20
15.203269845262534
10
-103.0251329056419
20
19.225500635482877
42
0.60111452508835062
10
-103.616301520001
20
19.881568718028756
10
-115.43949969233013
20
16.924353908746649
42
0.24913053828173726
0
CIRCLE
5
126
100
AcDbEntity
8
INTERIOR_PROFILES
100
AcDbCircle
10
132.98526971720966
20
1.5009770688513524
30
0
40
1.7500000000000049
210
0
220
0
230
-1
0
CIRCLE
5
127
100
AcDbEntity
8
INTERIOR_PROFILES
100
AcDbCircle
10
96.971105421154647
20
-28.718494931106264
30
0
40
1.750000000000012
210
0
220
0
230
-1
0
CIRCLE
5
128
100
AcDbEntity
8
INTERIOR_PROFILES
100
AcDbCircle
10
122.74978732219091
20
29.622733826391951
30
0
40
1.7500000000000044
210
0
220
0
230
-1
0
CIRCLE
5
129
100
AcDbEntity
8
INTERIOR_PROFILES
100
AcDbCircle
10
5.6902323498405494
20
29.622733826393247
30
0
40
1.7499999999999982
210
0
220
0
230
-1
0
CIRCLE
5
130
100
AcDbEntity
8
INTERIOR_PROFILES
100
AcDbCircle
10
28.723482109896175
20
29.622733826393102
30
0
40
1.7499999999999987
210
0
220
0
230
-1
0
CIRCLE
5
131
100
AcDbEntity
8
INTERIOR_PROFILES
100
AcDbCircle
10
75.736634716043511
20
29.62273382639248
30
0
40
1.7500000000000091
210
0
220
0
230
-1
0
CIRCLE
5
132
100
AcDbEntity
8
INTERIOR_PROFILES
100
AcDbCircle
10
43.312448115662825
20
-73.743454460057208
30
0
40
1.749999999999996
210
0
220
0
230
-1
0
CIRCLE
5
133
100
AcDbEntity
8
INTERIOR_PROFILES
100
AcDbCircle
10
127.86752851920207
20
15.561855448990292
30
0
40
1.7500000000000082
210
0
220
0
230
-1
0
CIRCLE
5
134
100
AcDbEntity
8
INTERIOR_PROFILES
100
AcDbCircle
10
60.956941126293565
20
-58.93796693363565
30
0
40
1.7499999999999969
210
0
220
0
230
-1
0
LWPOLYLINE
5
135
100
AcDbEntity
8
INTERIOR_PROFILES
100
AcDbPolyline
90
4
70
1
43
0.0
10
11.700775945580251
20
6.0000000000008216
10
6.1715728752536414
20
6.0000000000008393
10
6.1715728752536414
20
3.0000000000007745
10
11.700775945580233
20
3.0000000000007612
0
LWPOLYLINE
5
136
100
AcDbEntity
8
INTERIOR_PROFILES
100
AcDbPolyline
90
4
70
1
43
0.0
10
-37.778904543944577
20
-59.298025657773685
10
-42.375171199276878
20
-55.441299995624441
10
-45.283073860061478
20
-58.906803432357897
10
-40.686807206885724
20
-62.763529097077182
0
LINE
5
137
100
AcDbEntity
8
BEND
100
AcDbLine
10
-16.264629601902989
20
41.983520942204478
30
5.2863743983517095e-13
11
-129.32418457425374
21
41.98352094220337
31
4.0418942609726618e-13
0
LINE
5
138
100
AcDbEntity
8
BEND
100
AcDbLine
10
19.090470269664088
20
30.45965350795154
30
5.9678286735615164e-13
11
4.0553883370894717
21
35.931975801162068
31
5.8276665468068867e-13
0
LINE
5
139
100
AcDbEntity
8
BEND
100
AcDbLine
10
-145.96691100203026
20
-3.7419941162735491
30
5.6369669796719024e-13
11
-61.434324816112067
21
-74.673256067318277
31
5.1607257341638949e-13
0
LINE
5
140
100
AcDbEntity
8
BEND
100
AcDbLine
10
-13.066844267954476
20
-60.452796836999994
30
2.2711523004918548e-07
11
-22.708658411611928
21
-71.943463485161345
31
5.2625372233454293e-08
0
LINE
5
141
100
AcDbEntity
8
BEND
100
AcDbLine
10
8.9361744104167684
20
15.000000000000032
30
-6.9275322248911879e-12
11
8.9361744104167684
21
-2.2204460492503131e-14
31
2.1532115252568007e-13
0
LINE
5
142
100
AcDbEntity
8
BEND
100
AcDbLine
10
-35.693118026634977
20
-64.000969993347553
30
2.6313195204166887e-08
11
-87.493655755344776
21
-20.535157903006606
31
2.6310833543020236e-08
0
LINE
5
143
100
AcDbEntity
8
BEND
100
AcDbLine
10
-73.736634716043511
20
17.261946710583278
30
5.1732918012194416e-13
11
-6.1158350977774667
21
17.261946710583338
31
-3.3539185269627989e-12
0
LINE
5
144
100
AcDbEntity
8
BEND_EXTENT
100
AcDbLine
10
-37.147069416659093
20
-65.733721789299096
30
5.6716395932520371e-13
11
-40.686807206885724
21
-62.763529097077182
31
5.6376454375719866e-13
0
LINE
5
145
100
AcDbEntity
8
BEND_EXTENT
100
AcDbLine
10
-45.283073860061478
20
-58.906803432357897
30
5.6223367943749564e-13
11
-78.989029316683727
21
-30.624148557749709
31
5.5100734109300608e-13
0
LINE
5
146
100
AcDbEntity
8
BEND_EXTENT
100
AcDbLine
10
-83.585295969859473
20
-26.76742289303041
30
5.4947647677330305e-13
11
-88.947607045789255
21
-22.267909577353244
31
5.4769046840679146e-13
0
LINE
5
147
100
AcDbEntity
8
BEND_EXTENT
100
AcDbLine
10
-73.736634716043397
20
19.523893421165191
30
5.5275673991902194e-13
11
-66.736634716043682
21
19.523893421165369
31
5.5508820827073679e-13
0
LINE
5
148
100
AcDbEntity
8
BEND_EXTENT
100
AcDbLine
10
-60.73663471604366
20
19.523893421165436
30
5.5708660971506379e-13
11
-16.736634716043657
21
19.523893421165855
31
5.7174155364012868e-13
0
LINE
5
149
100
AcDbEntity
8
BEND_EXTENT
100
AcDbLine
10
-10.73663471604366
20
19.52389342116593
30
5.7373995508445588e-13
11
-6.1158350977775378
21
19.523893421165862
31
5.7638921354759575e-13
0
LINE
5
150
100
AcDbEntity
8
BEND_EXTENT
100
AcDbLine
10
18.316838931515083
20
28.334118875404592
30
5.8341670570112231e-13
11
3.2817569989404305
21
33.806441168615052
31
5.7840901745951685e-13
0
LINE
5
151
100
AcDbEntity
8
BEND_EXTENT
100
AcDbLine
10
-16.264629601903309
20
39.721574231620451
30
5.718987629237667e-13
11
-129.32418457425345
21
39.721574231619087
31
5.320219205492303e-13
0
LINE
5
152
100
AcDbEntity
8
BEND_EXTENT
100
AcDbLine
10
-144.51295968269426
20
-2.0092424079978399
30
5.2696304219685253e-13
11
-59.980373496054717
21
-72.940504359648159
31
5.5733849530078287e-13
0
LINE
5
153
100
AcDbEntity
8
BEND_EXTENT
100
AcDbLine
10
-86.039704409024864
20
-18.802406162070248
30
5.2625324307263498e-08
11
-80.677393327045934
21
-23.301919477714055
31
5.2625406029329641e-08
0
LINE
5
154
100
AcDbEntity
8
BEND_EXTENT
100
AcDbLine
10
-76.081126671713662
20
-27.158645139863296
30
5.2625398678409768e-08
11
-42.375171199276878
21
-55.441299995624441
31
5.2625418786532313e-08
0
LINE
5
155
100
AcDbEntity
8
BEND_EXTENT
100
AcDbLine
10
-37.778904543944577
20
-59.298025657773685
30
5.262542031739663e-08
11
-34.239166638090239
21
-62.268218287842323
31
5.2625270506034843e-08
0
LINE
5
156
100
AcDbEntity
8
BEND_EXTENT
100
AcDbLine
10
-24.826466038885915
20
-70.166411886726564
30
5.2625309168230708e-08
11
-19.041377668070663
21
-63.272011963856166
31
1.5731926238114667e-07
0
LINE
5
157
100
AcDbEntity
8
BEND_EXTENT
100
AcDbLine
10
-17.113014836996001
20
-60.973878636189973
30
1.9221721421890996e-07
11
-15.184651895228498
21
-58.675745238565227
31
2.2711465091318985e-07
0
LINE
5
158
100
AcDbEntity
8
BEND_EXTENT
100
AcDbLine
10
6.1715728752539079
20
-5.5511151231257827e-15
30
-5.1235158490727958e-14
11
6.1715728752536414
21
3.0000000000007745
31
-1.5433749035869386e-12
0
LINE
5
159
100
AcDbEntity
8
BEND_EXTENT
100
AcDbLine
10
6.1715728752536414
20
6.0000000000008393
30
-1.1170492621308785e-12
11
6.1715728752538723
21
15.000000000000021
31
4.9943546172334945e-13
0
LINE
5
160
100
AcDbEntity
8
BEND_EXTENT
100
AcDbLine
10
-6.1158350977777332
20
15.00000000000005
30
5.1310650114396183e-13
11
-10.736634716043643
21
15.000000000000821
31
1.0300539264338948e-13
0
LINE
5
161
100
AcDbEntity
8
BEND_EXTENT
100
AcDbLine
10
-16.736634716043675
20
15.000000000000821
30
9.2125207002061167e-14
11
-60.736634716043667
21
15.000000000000831
31
6.8588478879994923e-14
0
LINE
5
162
100
AcDbEntity
8
BEND_EXTENT
100
AcDbLine
10
-66.736634716043682
20
15.000000000000833
30
5.770829323866661e-14
11
-73.736634716043483
21
14.999999999999996
31
4.7282068214601067e-13
0
LINE
5
163
100
AcDbEntity
8
BEND_EXTENT
100
AcDbLine
10
11.70077594557819
20
15.000000000000036
30
1.0000447501031534e-12
11
11.700775945580251
21
6.0000000000008216
31
-5.5676548617747157e-13
0
LINE
5
164
100
AcDbEntity
8
BEND_EXTENT
100
AcDbLine
10
11.700775945580233
20
3.0000000000007612
30
-9.6616022650799804e-13
11
11.700775945578243
21
-1.8873791418627661e-14
31
4.4076990144823098e-13
0
LINE
5
165
100
AcDbEntity
8
BEND_EXTENT
100
AcDbLine
10
-10.94903660782947
20
-62.229848462999954
30
2.2711475085622659e-07
11
-12.87739955321916
21
-64.527981864944536
31
1.9221732248861938e-07
0
LINE
5
166
100
AcDbEntity
8
BEND_EXTENT
100
AcDbLine
10
-14.805762384293857
20
-66.826115192610757
30
1.5731937370396941e-07
11
-20.590850751486887
21
-73.720515111161376
31
5.2625454075299934e-08
0
LINE
5
167
100
AcDbEntity
8
BEND_EXTENT
100
AcDbLine
10
4.8290196752384951
20
38.05751043370902
30
5.9668792784803058e-13
11
19.864101607813112
21
32.585188140498488
31
6.0169561608963604e-13
0
LINE
5
168
100
AcDbEntity
8
BEND_EXTENT
100
AcDbLine
10
-129.32418457425365
20
44.245467652787681
30
4.0989738784046298e-13
11
-16.264629601903291
21
44.245467652788733
31
4.2979021577174671e-13
0
LINE
5
169
100
AcDbEntity
8
BEND_EXTENT
100
AcDbLine
10
-62.888276136169374
20
-76.406007774988495
30
5.3860640076745246e-13
11
-147.42086232153329
21
-5.4747458244087621
31
5.548603146982035e-13
0
ENDSEC
0
SECTION
2
OBJECTS
0
DICTIONARY
5
C
100
AcDbDictionary
3
ACAD_GROUP
350
D
3
ACAD_MLINESTYLE
350
17
0
DICTIONARY
5
D
100
AcDbDictionary
0
DICTIONARY
5
1A
330
C
100
AcDbDictionary
0
DICTIONARY
5
17
100
AcDbDictionary
0
ENDSEC
0
EOF
